<?xml version="1.0" standalone="no"?>
<!DOCTYPE svg PUBLIC "-//W3C//DTD SVG 20010904//EN"
 "http://www.w3.org/TR/2001/REC-SVG-20010904/DTD/svg10.dtd">
<svg version="1.0" xmlns="http://www.w3.org/2000/svg"
 width="864.000000pt" height="864.000000pt" viewBox="0 0 864.000000 864.000000"
 preserveAspectRatio="xMidYMid meet">
<metadata>
Created by potrace 1.14, written by Peter Selinger 2001-2017
</metadata>
<g transform="translate(0.000000,864.000000) scale(0.100000,-0.100000)"
fill="#000000" stroke="none">
<path d="M3590 8150 c-30 -4 -67 -6 -83 -6 -15 1 -27 -3 -27 -7 0 -5 -4 -6 -9
-3 -4 3 -35 1 -67 -4 -32 -5 -79 -11 -104 -14 -25 -4 -58 -9 -75 -12 -16 -3
-52 -10 -80 -15 -83 -15 -95 -18 -230 -54 -71 -19 -140 -37 -152 -40 -12 -3
-34 -10 -48 -15 -14 -5 -25 -6 -25 -2 0 4 -4 3 -8 -3 -4 -5 -38 -21 -77 -33
-73 -25 -185 -68 -270 -105 -84 -36 -367 -182 -427 -221 -31 -20 -62 -36 -68
-36 -5 0 -10 -4 -10 -10 0 -5 -7 -10 -15 -10 -8 0 -15 -4 -15 -10 0 -5 -7 -10
-15 -10 -8 0 -15 -4 -15 -9 0 -5 -8 -11 -17 -14 -18 -6 -134 -86 -183 -126
-14 -12 -56 -46 -95 -76 -169 -134 -398 -356 -525 -510 -41 -49 -78 -91 -82
-93 -5 -2 -8 -8 -8 -13 0 -6 -11 -21 -25 -35 -14 -14 -25 -28 -25 -32 0 -4
-10 -19 -23 -34 -12 -14 -29 -36 -37 -49 -8 -12 -30 -42 -47 -65 -18 -24 -30
-44 -25 -44 4 0 2 -4 -3 -8 -11 -7 -115 -169 -115 -178 0 -2 -11 -22 -24 -43
-51 -80 -173 -332 -227 -470 -67 -167 -168 -504 -192 -641 -7 -39 -27 -143
-31 -165 -4 -22 -13 -87 -21 -162 -3 -27 -8 -62 -10 -78 -21 -157 -22 -644 -1
-752 3 -12 7 -49 11 -82 3 -33 8 -68 10 -79 2 -11 7 -42 11 -69 3 -26 8 -57
10 -68 11 -53 16 -81 18 -90 2 -5 6 -28 11 -50 14 -76 65 -270 75 -287 6 -10
10 -28 10 -41 0 -13 3 -26 6 -30 4 -3 17 -39 31 -79 13 -40 27 -82 32 -93 5
-11 19 -47 32 -80 12 -33 26 -64 31 -69 4 -6 8 -18 8 -28 0 -10 4 -18 10 -18
5 0 9 -3 8 -7 -4 -20 101 -231 190 -383 75 -129 228 -359 252 -380 3 -3 17
-21 30 -40 25 -36 53 -70 80 -100 8 -9 37 -43 65 -75 57 -69 262 -276 350
-353 33 -28 69 -60 80 -70 11 -10 63 -50 115 -90 52 -40 100 -76 105 -80 9 -7
188 -126 240 -160 11 -6 31 -18 45 -24 14 -7 27 -16 30 -19 3 -4 68 -39 145
-78 77 -40 145 -75 150 -79 6 -4 19 -9 30 -10 11 -2 22 -8 23 -13 2 -5 10 -9
17 -9 7 0 26 -7 42 -15 31 -16 61 -28 180 -74 45 -17 87 -31 93 -31 5 0 18 -4
28 -9 17 -10 143 -50 174 -56 22 -5 139 -36 158 -42 8 -3 26 -7 40 -9 14 -2
32 -5 40 -7 54 -14 156 -34 220 -43 25 -3 59 -8 75 -10 30 -5 73 -9 210 -22
153 -14 603 -6 740 13 22 3 58 8 80 10 22 3 51 7 65 9 14 3 41 8 60 11 103 17
137 24 225 46 44 10 90 21 103 24 45 10 218 61 242 72 8 3 17 7 20 8 29 7 148
51 169 61 14 8 30 14 34 14 5 0 38 13 74 30 35 16 75 33 88 36 13 3 29 12 36
20 6 8 17 14 23 14 21 0 306 154 363 196 17 13 35 24 38 24 21 0 380 266 455
337 14 13 41 37 60 54 95 83 230 221 332 340 90 105 104 122 153 189 22 30 48
64 57 74 10 11 18 23 18 27 0 4 6 14 13 21 6 7 34 47 61 88 27 41 57 87 67
102 11 15 19 30 19 33 0 3 12 24 27 48 14 23 25 42 23 42 -2 0 9 20 24 44 34
54 126 242 126 258 0 6 4 13 8 15 7 3 104 238 111 270 1 4 8 23 17 43 8 19 12
35 9 35 -3 0 -1 9 5 21 24 43 85 270 126 464 11 51 30 177 39 250 3 28 8 64
10 80 18 135 25 523 11 685 -8 105 -16 179 -23 220 -3 19 -7 51 -8 70 -2 19
-4 35 -5 35 -2 0 -7 25 -15 75 -3 25 -15 85 -27 133 -11 49 -21 94 -22 100 -6
27 -19 76 -39 142 -11 39 -22 76 -23 82 -1 7 -10 33 -20 58 -16 44 -16 46 2
63 30 29 161 105 256 150 88 42 271 107 329 117 18 3 35 8 38 10 4 2 25 6 47
9 22 4 50 8 63 11 34 6 159 18 211 19 l45 1 2 850 c2 468 4 917 4 998 1 81 -1
150 -4 153 -10 11 -189 5 -352 -11 -168 -16 -166 -16 -235 -29 -14 -3 -41 -8
-60 -10 -19 -3 -46 -8 -60 -11 -14 -3 -38 -8 -53 -10 -15 -3 -56 -12 -90 -21
-34 -8 -73 -17 -87 -20 -14 -2 -62 -16 -107 -30 -45 -14 -90 -27 -100 -29 -30
-7 -233 -81 -313 -114 -138 -58 -294 -133 -298 -143 -2 -5 -12 -8 -23 -8 -10
0 -19 -4 -19 -8 0 -4 -12 -13 -27 -19 -16 -7 -42 -21 -59 -31 -108 -64 -180
-107 -184 -112 -3 -3 -21 -16 -41 -28 -33 -20 -37 -21 -60 -5 -13 9 -26 20
-29 24 -3 4 -41 35 -85 68 -44 34 -89 68 -100 77 -11 8 -32 23 -47 32 -16 9
-28 20 -28 24 0 4 -4 8 -9 8 -4 0 -48 26 -97 58 -119 76 -117 74 -209 126
-103 57 -319 164 -345 171 -9 3 -65 25 -85 35 -36 17 -100 42 -115 45 -8 2
-41 13 -72 25 -32 12 -59 21 -60 20 -2 -1 -16 4 -33 10 -16 7 -37 13 -45 15
-8 3 -73 20 -145 40 -71 19 -143 37 -160 40 -16 2 -61 10 -100 18 -62 13 -102
20 -195 33 -14 2 -54 6 -90 10 -36 4 -78 9 -95 11 -50 7 -556 10 -615 3z m505
-2034 c28 -4 64 -8 80 -10 17 -2 41 -7 55 -10 14 -3 36 -8 50 -10 179 -33 422
-131 576 -232 32 -21 64 -41 70 -44 42 -19 181 -137 277 -235 164 -167 321
-413 394 -620 6 -16 15 -39 19 -50 4 -11 9 -24 10 -30 1 -5 3 -13 4 -17 1 -5
3 -11 5 -15 1 -5 4 -15 7 -23 13 -32 33 -120 42 -180 3 -19 8 -52 12 -73 3
-20 8 -49 10 -65 5 -35 5 -298 0 -337 -2 -16 -7 -57 -11 -90 -4 -33 -9 -67
-11 -75 -9 -39 -32 -131 -34 -138 -1 -4 -4 -11 -5 -17 -15 -61 -65 -197 -96
-265 -46 -99 -127 -242 -143 -252 -6 -5 -7 -8 -1 -8 6 0 6 -3 0 -8 -6 -4 -35
-38 -65 -77 -72 -93 -66 -86 -140 -163 -55 -57 -158 -148 -221 -195 -51 -39
-79 -57 -89 -57 -5 0 -10 -4 -10 -10 0 -5 -11 -12 -25 -16 -14 -3 -25 -9 -25
-13 0 -10 -273 -141 -292 -141 -8 0 -19 -5 -26 -12 -7 -7 -12 -9 -12 -6 0 4
-15 1 -33 -7 -39 -16 -178 -52 -233 -60 -21 -4 -50 -8 -64 -10 -49 -9 -146
-18 -195 -20 -27 -1 -58 -5 -67 -9 -21 -10 -192 1 -298 18 -44 7 -162 33 -188
41 -7 3 -16 5 -20 6 -48 10 -229 83 -316 128 -187 96 -325 198 -466 341 -107
110 -142 153 -225 278 -14 20 -28 42 -33 47 -18 23 -112 215 -137 280 -31 81
-63 179 -69 209 -2 12 -10 44 -16 71 -13 53 -17 76 -25 140 -2 22 -7 56 -10
75 -6 43 -6 272 0 320 2 19 7 55 10 80 5 47 23 148 28 165 3 8 19 78 22 95 1
8 26 83 32 100 4 8 7 17 8 20 19 55 73 177 107 240 45 83 135 223 167 257 12
12 21 24 21 27 0 14 158 176 227 233 25 21 55 46 67 57 34 29 206 141 261 169
87 44 223 104 255 113 8 2 53 15 100 29 47 13 99 27 115 30 17 3 41 8 55 10
59 12 74 14 143 20 39 4 73 7 74 9 5 4 252 -2 298 -8z"/>
</g>
</svg>
